<svg width="24" height="24" viewBox="0 0 24 24" fill="none" xmlns="http://www.w3.org/2000/svg">
<path fill-rule="evenodd" clip-rule="evenodd" d="M19 11V8C19 4.13401 15.866 1 12 1C8.13401 1 5 4.13401 5 8V11C5 14.3 2 15.1 2 17C2 18.7 5.9 20 12 20C18.1 20 22 18.7 22 17C22 15.1 19 14.3 19 11Z" stroke="#081735" stroke-width="2" stroke-linecap="round" stroke-linejoin="round"/>
<path d="M12 21.9999C10.989 21.9999 10.039 21.9659 9.14502 21.8999C9.53619 23.1477 10.6924 23.9969 12 23.9969C13.3077 23.9969 14.4639 23.1477 14.855 21.8999C13.961 21.9659 13.011 21.9999 12 21.9999Z" fill="#081735"/>
</svg>
