<svg width="178" height="68" viewBox="0 0 178 68" fill="none" xmlns="http://www.w3.org/2000/svg">
<g filter="url(#filter0_d_1_883)">
<path d="M48.2592 28.6962C48.2592 29.2414 48.2249 29.8095 48.1564 30.4001H34.8969C34.9881 31.5816 35.365 32.4904 36.0275 33.1264C36.7128 33.7398 37.5464 34.0465 38.5287 34.0465C39.9904 34.0465 41.0069 33.4331 41.578 32.2063H47.8137C47.4939 33.4559 46.9114 34.5805 46.0664 35.58C45.2441 36.5798 44.2047 37.3636 42.9485 37.9314C41.6922 38.4995 40.2874 38.7834 38.7342 38.7834C36.8612 38.7834 35.1937 38.3859 33.7319 37.5907C32.27 36.7956 31.128 35.6597 30.3057 34.1828C29.4834 32.7061 29.0723 30.9794 29.0723 29.0029C29.0723 27.0264 29.4719 25.2998 30.2714 23.823C31.0937 22.3463 32.2358 21.2104 33.6977 20.4151C35.1594 19.62 36.8383 19.2224 38.7342 19.2224C40.5844 19.2224 42.229 19.6087 43.668 20.3811C45.107 21.1536 46.2262 22.2554 47.0257 23.6867C47.848 25.118 48.2592 26.7878 48.2592 28.6962ZM42.2632 27.1627C42.2632 26.1631 41.9206 25.368 41.2354 24.7772C40.5501 24.1865 39.6936 23.8911 38.6657 23.8911C37.6835 23.8911 36.8498 24.1752 36.1646 24.7431C35.5021 25.3111 35.0909 26.1177 34.9311 27.1627H42.2632ZM62.9991 19.2905C65.2375 19.2905 67.0192 20.0177 68.344 21.4716C69.6916 22.9029 70.3655 24.8794 70.3655 27.4012V38.5108H64.5409V28.185C64.5409 26.9128 64.2097 25.9245 63.5473 25.2202C62.8849 24.516 61.9941 24.1638 60.8748 24.1638C59.7556 24.1638 58.8647 24.516 58.2024 25.2202C57.54 25.9245 57.2088 26.9128 57.2088 28.185V38.5108H51.3499V19.495H57.2088V22.0168C57.8026 21.1763 58.6022 20.5174 59.6071 20.0403C60.6121 19.5406 61.7428 19.2905 62.9991 19.2905ZM85.0924 33.5694V38.5108H82.1115C79.9873 38.5108 78.3313 37.9996 77.1435 36.9773C75.9559 35.9323 75.3619 34.2397 75.3619 31.8996V24.3342H73.032V19.495H75.3619V14.8604H81.2207V19.495H85.0581V24.3342H81.2207V31.9677C81.2207 32.5357 81.3578 32.9447 81.6319 33.1945C81.906 33.4446 82.3629 33.5694 83.0024 33.5694H85.0924Z" fill="#4285F4"/>
<path d="M97.0585 38.7489C95.2998 38.7489 93.7237 38.465 92.3303 37.897C90.9371 37.3291 89.8178 36.4885 88.9726 35.3752C88.1503 34.2621 87.7164 32.9215 87.6707 31.3539H93.9064C93.9978 32.24 94.3062 32.9215 94.8315 33.3986C95.3569 33.8531 96.0422 34.0802 96.8872 34.0802C97.7553 34.0802 98.4405 33.8872 98.9429 33.5009C99.4455 33.0919 99.6967 32.5354 99.6967 31.831C99.6967 31.2404 99.4911 30.752 99.08 30.3657C98.6917 29.9795 98.2007 29.6615 97.6067 29.4115C97.0358 29.1616 96.2135 28.8777 95.1398 28.5595C93.5867 28.0824 92.319 27.6053 91.3367 27.1282C90.3546 26.6511 89.5094 25.9469 88.8013 25.0153C88.0933 24.0839 87.7392 22.8684 87.7392 21.3689C87.7392 19.1425 88.5501 17.4045 90.1718 16.1549C91.7937 14.8827 93.9064 14.2466 96.5103 14.2466C99.16 14.2466 101.296 14.8827 102.917 16.1549C104.539 17.4045 105.407 19.1538 105.521 21.403H99.1828C99.1372 20.6307 98.8517 20.0286 98.3262 19.5969C97.8009 19.1425 97.127 18.9153 96.3047 18.9153C95.5968 18.9153 95.0257 19.1085 94.5916 19.4946C94.1577 19.8582 93.9406 20.3921 93.9406 21.0963C93.9406 21.8688 94.3062 22.4709 95.037 22.9025C95.7681 23.3342 96.9101 23.8 98.4633 24.2997C100.017 24.8223 101.273 25.322 102.232 25.7991C103.214 26.2762 104.06 26.9693 104.768 27.8779C105.476 28.7867 105.83 29.9567 105.83 31.388C105.83 32.7511 105.476 33.9894 104.768 35.1026C104.082 36.2158 103.077 37.1019 101.752 37.7607C100.428 38.4196 98.8631 38.7489 97.0585 38.7489ZM118.138 38.783C116.265 38.783 114.575 38.3855 113.067 37.5903C111.582 36.7952 110.406 35.6593 109.538 34.1824C108.693 32.7058 108.27 30.9791 108.27 29.0025C108.27 27.0487 108.704 25.3335 109.572 23.8567C110.44 22.3572 111.628 21.21 113.136 20.4148C114.643 19.6196 116.333 19.222 118.206 19.222C120.08 19.222 121.77 19.6196 123.277 20.4148C124.785 21.21 125.973 22.3572 126.841 23.8567C127.708 25.3335 128.143 27.0487 128.143 29.0025C128.143 30.9564 127.697 32.683 126.806 34.1824C125.938 35.6593 124.739 36.7952 123.209 37.5903C121.701 38.3855 120.011 38.783 118.138 38.783ZM118.138 33.7394C119.257 33.7394 120.205 33.3305 120.982 32.5126C121.781 31.6947 122.181 30.5247 122.181 29.0025C122.181 27.4804 121.793 26.3103 121.016 25.4924C120.262 24.6746 119.326 24.2656 118.206 24.2656C117.064 24.2656 116.116 24.6746 115.363 25.4924C114.609 26.2877 114.232 27.4577 114.232 29.0025C114.232 30.5247 114.598 31.6947 115.328 32.5126C116.082 33.3305 117.019 33.7394 118.138 33.7394ZM140.844 24.3338H137.692V38.5104H131.833V24.3338H129.709V19.4946H131.833V18.9494C131.833 16.6094 132.507 14.8374 133.855 13.6331C135.202 12.4064 137.178 11.793 139.782 11.793C140.216 11.793 140.536 11.8043 140.741 11.827V16.7684C139.622 16.7002 138.834 16.8593 138.377 17.2455C137.921 17.6318 137.692 18.3247 137.692 19.3242V19.4946H140.844V24.3338ZM154.253 33.569V38.5104H151.272C149.148 38.5104 147.492 37.9992 146.304 36.9769C145.116 35.9319 144.522 34.2393 144.522 31.8992V24.3338H142.192V19.4946H144.522V14.86H150.381V19.4946H154.219V24.3338H150.381V31.9673C150.381 32.5354 150.518 32.9443 150.792 33.1942C151.066 33.4442 151.523 33.569 152.163 33.569H154.253ZM160.257 38.783C159.229 38.783 158.385 38.4878 157.721 37.897C157.083 37.2836 156.762 36.5338 156.762 35.6478C156.762 34.7392 157.083 33.978 157.721 33.3646C158.385 32.7511 159.229 32.4444 160.257 32.4444C161.263 32.4444 162.085 32.7511 162.723 33.3646C163.387 33.978 163.717 34.7392 163.717 35.6478C163.717 36.5338 163.387 37.2836 162.723 37.897C162.085 38.4878 161.263 38.783 160.257 38.783Z" fill="#3054F8"/>
<path fill-rule="evenodd" clip-rule="evenodd" d="M18.5315 26.8209C18.2301 26.8153 17.9565 26.6441 17.8249 26.3791L6.96287 4.47858C6.81219 4.17483 6.8797 3.81279 7.1299 3.58312C7.38011 3.3536 7.7555 3.30924 8.05844 3.47342L25.4696 12.9109C25.7328 13.0535 25.8824 13.3197 25.8821 13.5937C25.882 13.7114 25.8541 13.8307 25.7955 13.942L19.2464 26.4051C19.1097 26.6654 18.8328 26.8263 18.5315 26.8209Z" fill="#4285F4"/>
<path fill-rule="evenodd" clip-rule="evenodd" d="M6.86506 50.0946C6.61219 49.8615 6.54228 49.4973 6.6923 49.1946L24.4074 13.4491C24.5678 13.1255 24.9368 12.9547 25.2981 13.0372C25.6595 13.1197 25.9151 13.4336 25.9165 13.794L26.0107 39.9758V39.9795C26.0104 40.2588 25.858 40.5149 25.6075 40.6493L7.79768 50.2133C7.49533 50.3756 7.11785 50.3276 6.86506 50.0946Z" fill="url(#paint0_linear_1_883)"/>
<path d="M6.87773 4.20095C6.88005 3.77245 7.25158 3.43829 7.68045 3.47894C8.05797 3.51474 8.34575 3.83095 8.34406 4.20812L8.14307 49.2825C8.14159 49.6135 7.92248 49.9044 7.60356 49.999C7.11752 50.1432 6.62958 49.7794 6.63234 49.275L6.87773 4.20095Z" fill="url(#paint1_linear_1_883)"/>
</g>
<defs>
<filter id="filter0_d_1_883" x="0.614014" y="0.375" width="177.103" height="66.9336" filterUnits="userSpaceOnUse" color-interpolation-filters="sRGB">
<feFlood flood-opacity="0" result="BackgroundImageFix"/>
<feColorMatrix in="SourceAlpha" type="matrix" values="0 0 0 0 0 0 0 0 0 0 0 0 0 0 0 0 0 0 127 0" result="hardAlpha"/>
<feOffset dx="4" dy="7"/>
<feGaussianBlur stdDeviation="5"/>
<feComposite in2="hardAlpha" operator="out"/>
<feColorMatrix type="matrix" values="0 0 0 0 0 0 0 0 0 0 0 0 0 0 0 0 0 0 0.25 0"/>
<feBlend mode="normal" in2="BackgroundImageFix" result="effect1_dropShadow_1_883"/>
<feBlend mode="normal" in="SourceGraphic" in2="effect1_dropShadow_1_883" result="shape"/>
</filter>
<linearGradient id="paint0_linear_1_883" x1="6.63721" y1="31.567" x2="26.0216" y2="31.592" gradientUnits="userSpaceOnUse">
<stop stop-color="#1E22FB"/>
<stop offset="1" stop-color="#4285F4"/>
</linearGradient>
<linearGradient id="paint1_linear_1_883" x1="8.19767" y1="3.41035" x2="7.94515" y2="50.2958" gradientUnits="userSpaceOnUse">
<stop stop-color="#4285F4"/>
<stop offset="1" stop-color="#2027FB"/>
</linearGradient>
</defs>
</svg>
