<svg width="11" height="11" viewBox="0 0 11 11" fill="none" xmlns="http://www.w3.org/2000/svg">
<path d="M4.24237 1.18642C4.52776 0.236862 5.87234 0.236863 6.15773 1.18642L6.64741 2.8157C6.77446 3.23844 7.16367 3.52786 7.60509 3.52786H9.34579C10.2956 3.52786 10.7104 4.72762 9.96348 5.31428L8.42452 6.52307C8.10103 6.77715 7.96613 7.20339 8.08453 7.59732L8.6402 9.44617C8.92128 10.3814 7.83279 11.1236 7.06483 10.5204L5.81774 9.5409C5.45518 9.25612 4.94492 9.25612 4.58236 9.5409L3.33527 10.5204C2.5673 11.1236 1.47882 10.3814 1.75989 9.44617L2.31557 7.59731C2.43396 7.20339 2.29906 6.77715 1.97558 6.52307L0.436615 5.31428C-0.310294 4.72762 0.10455 3.52786 1.05431 3.52786H2.79501C3.23643 3.52786 3.62563 3.23844 3.75269 2.8157L4.24237 1.18642Z" fill="#FFCE73"/>
</svg>
