<svg width="21" height="50" viewBox="0 0 21 50" fill="none" xmlns="http://www.w3.org/2000/svg">
<path fill-rule="evenodd" clip-rule="evenodd" d="M12.4192 24.633C12.1051 24.6272 11.82 24.4473 11.6828 24.1689L0.363496 1.15945C0.206476 0.840326 0.276831 0.459958 0.537558 0.218656C0.798301 -0.0224833 1.1895 -0.0690937 1.50519 0.1034L19.6494 10.0187C19.9237 10.1686 20.0797 10.4483 20.0793 10.7361C20.0792 10.8597 20.0501 10.9851 19.9891 11.1021L13.1643 24.1962C13.0218 24.4696 12.7332 24.6387 12.4192 24.633Z" fill="#4285F4"/>
<path fill-rule="evenodd" clip-rule="evenodd" d="M0.261615 49.0853C-0.00190402 48.8403 -0.0747582 48.4577 0.0815806 48.1397L18.5426 10.5842C18.7098 10.2443 19.0942 10.0648 19.4708 10.1516C19.8475 10.2382 20.1138 10.568 20.1152 10.9466L20.2134 38.4541V38.458C20.2131 38.7514 20.0542 39.0205 19.7932 39.1617L1.2335 49.2099C0.918423 49.3805 0.525052 49.33 0.261615 49.0853Z" fill="url(#paint0_linear_1_924)"/>
<path d="M0.2746 0.867562C0.277018 0.41736 0.66419 0.0662863 1.11112 0.108991C1.50454 0.146601 1.80443 0.478829 1.80267 0.875097L1.59322 48.2317C1.59167 48.5795 1.36334 48.8851 1.03099 48.9845C0.524486 49.136 0.0159994 48.7538 0.018872 48.2239L0.2746 0.867562Z" fill="url(#paint1_linear_1_924)"/>
<defs>
<linearGradient id="paint0_linear_1_924" x1="0.0241768" y1="29.6195" x2="20.2248" y2="29.6454" gradientUnits="userSpaceOnUse">
<stop stop-color="#1E22FB"/>
<stop offset="1" stop-color="#4285F4"/>
</linearGradient>
<linearGradient id="paint1_linear_1_924" x1="1.65012" y1="0.0369271" x2="1.38264" y2="49.2963" gradientUnits="userSpaceOnUse">
<stop stop-color="#4285F4"/>
<stop offset="1" stop-color="#2027FB"/>
</linearGradient>
</defs>
</svg>
